#!OML:ASF H:\Not Pregnant\Project 1\Capture day 1\Session 1\non-pregnant.ASF
:FULLY-SPECIFIED
:DEGREES
727
root -4.76927 15.7572 33.1523 131.326 -77.5629 -124.361
lowerback -8.38114 1.38465 7.26895
upperback -3.64399 1.02769 3.09016
thorax 0.985772 0.382653 -0.782525
lowerneck 26.747 -10.031 -21.2193
upperneck -10.4176 -28.7364 55.5705
head 8.45008 -22.247 32.866
rclavicle -2.52394e-014 1.20265e-014
rhumerus -32.5089 10.9604 -92.6168
rradius 26.4095
rwrist 19.078
rhand -6.93332 2.89864
rfingers 7.12502
rthumb 18.935 -26.1997
lclavicle -2.52394e-014 1.20265e-014
lhumerus -41.9911 -14.527 96.7423
lradius 33.1101
lwrist 38.8031
lhand -18.2049 -14.649
lfingers 7.12502
lthumb 8.07262 15.1768
rfemur -13.3408 -3.54998 36.0976
rtibia 23.0027
rfoot -18.3036 9.15691
rtoes -7.52059
lfemur -20.2428 -3.57934 -0.418451
ltibia 33.4404
lfoot -18.9095 3.82041
ltoes -28.2736
728
root -4.76819 15.7561 33.1515 131.041 -77.5752 -124.088
lowerback -8.37869 1.36659 7.26833
upperback -3.63407 1.00333 3.10196
thorax 0.992917 0.371068 -0.772217
lowerneck 26.7647 -10.026 -21.2478
upperneck -10.3861 -28.7518 55.5545
head 8.4696 -22.2556 32.8625
rclavicle 1.23246e-014 6.26172e-015
rhumerus -32.4865 10.8994 -92.5647
rradius 26.3864
rwrist 19.078
rhand -6.91445 2.94829
rfingers 7.12502
rthumb 18.9531 -26.1483
lclavicle 1.23246e-014 6.26172e-015
lhumerus -41.971 -14.4756 96.7008
lradius 33.0836
lwrist 38.7728
lhand -18.1969 -14.6386
lfingers 7.12502
lthumb 8.08034 15.187
rfemur -13.3288 -3.59911 36.1279
rtibia 22.9957
rfoot -18.3081 9.14616
rtoes -7.52622
lfemur -20.2749 -3.61285 -0.386405
ltibia 33.4871
lfoot -18.9281 3.79427
ltoes -28.2127
729
root -4.76722 15.7552 33.1509 130.769 -77.5884 -123.825
lowerback -8.38038 1.35245 7.26856
upperback -3.62572 0.983914 3.10942
thorax 1.00114 0.361923 -0.766361
lowerneck 26.7853 -10.0228 -21.274
upperneck -10.3562 -28.7685 55.5394
head 8.48832 -22.2651 32.858
rclavicle -1.1778e-014 -3.81667e-014
rhumerus -32.4656 10.823 -92.5131
rradius 26.3598
rwrist 19.0914
rhand -6.90361 2.98227
rfingers 7.12502
rthumb 18.9635 -26.1133
lclavicle -1.1778e-014 -3.81667e-014
lhumerus -41.9526 -14.427 96.6656
lradius 33.0529
lwrist 38.6969
lhand -18.1924 -14.6368
lfingers 7.12502
lthumb 8.08465 15.1885
rfemur -13.321 -3.64608 36.1556
rtibia 22.9908
rfoot -18.3151 9.13307
rtoes -7.54039
lfemur -20.3103 -3.66796 -0.357253
ltibia 33.5363
lfoot -18.9408 3.79756
ltoes -28.1629
730
root -4.76639 15.7541 33.1504 130.493 -77.6001 -123.555
lowerback -8.38677 1.34388 7.27184
upperback -3.61916 0.971327 3.11314
thorax 1.01064 0.356123 -0.765362
lowerneck 26.8106 -10.0245 -21.2942
upperneck -10.3309 -28.7868 55.5263
head 8.50343 -22.2748 32.8482
rclavicle -1.77664e-015 3.97569e-016
rhumerus -32.4487 10.7426 -92.4663
rradius 26.3334
rwrist 19.1031
rhand -6.90172 2.99258
rfingers 7.12502
rthumb 18.9653 -26.1028
lclavicle -1.77664e-015 3.97569e-016
lhumerus -41.9379 -14.389 96.6354
lradius 33.0287
lwrist 38.6267
lhand -18.1681 -14.6402
lfingers 7.12502
lthumb 8.10807 15.1842
rfemur -13.317 -3.69426 36.1857
rtibia 22.9876
rfoot -18.326 9.12035
rtoes -7.5729
lfemur -20.3496 -3.7385 -0.326244
ltibia 33.5878
lfoot -18.9485 3.82733
ltoes -28.1467
731
root -4.76567 15.7532 33.1501 130.23 -77.612 -123.294
lowerback -8.39721 1.34306 7.2815
upperback -3.61449 0.968541 3.10776
thorax 1.02128 0.35515 -0.776339
lowerneck 26.8418 -10.0325 -21.3021
upperneck -10.3132 -28.8072 55.5178
head 8.51345 -22.2859 32.8338
rclavicle -5.43552e-015 3.89618e-014
rhumerus -32.4347 10.6497 -92.4272
rradius 26.3076
rwrist 19.1102
rhand -6.90606 2.98473
rfingers 7.12502
rthumb 18.9612 -26.1111
lclavicle -5.43552e-015 3.89618e-014
lhumerus -41.9247 -14.3627 96.5988
lradius 33.0189
lwrist 38.6059
lhand -18.0962 -14.6369
lfingers 7.12502
lthumb 8.1775 15.1848
rfemur -13.3177 -3.74179 36.2139
rtibia 22.9864
rfoot -18.3379 9.11028
rtoes -7.60411
lfemur -20.3923 -3.82496 -0.29701
ltibia 33.6402
lfoot -18.9513 3.87983
ltoes -28.1396
732
root -4.76509 15.7523 33.1499 129.971 -77.6205 -123.035
lowerback -8.41096 1.35012 7.29781
upperback -3.61038 0.975598 3.09615
thorax 1.03398 0.359075 -0.796484
lowerneck 26.8773 -10.047 -21.2993
upperneck -10.3028 -28.8306 55.5141
head 8.5199 -22.2986 32.8145
rclavicle -1.04859e-014 -5.53615e-014
rhumerus -32.4208 10.543 -92.3924
rradius 26.2799
rwrist 19.1197
rhand -6.91749 2.96837
rfingers 7.12502
rthumb 18.9502 -26.1285
lclavicle -1.04859e-014 -5.53615e-014
lhumerus -41.917 -14.3605 96.5701
lradius 33.0203
lwrist 38.5868
lhand -18.0221 -14.6304
lfingers 7.12502
lthumb 8.24897 15.1886
rfemur -13.3199 -3.78359 36.2435
rtibia 22.9859
rfoot -18.3481 9.10261
rtoes -7.61418
lfemur -20.4356 -3.9271 -0.265128
ltibia 33.6938
lfoot -18.9511 3.95399
ltoes -28.1409
733
root -4.76462 15.7514 33.1499 129.714 -77.6261 -122.777
lowerback -8.42646 1.36017 7.31598
upperback -3.60701 0.986325 3.08345
thorax 1.04718 0.364794 -0.818414
lowerneck 26.9174 -10.0628 -21.2971
upperneck -10.2938 -28.8543 55.5096
head 8.52442 -22.3113 32.7937
rclavicle -2.03133e-014 2.75317e-014
rhumerus -32.4062 10.433 -92.3585
rradius 26.2492
rwrist 19.1402
rhand -6.92424 2.95829
rfingers 7.12502
rthumb 18.9437 -26.1392
lclavicle -2.03133e-014 2.75317e-014
lhumerus -41.919 -14.3757 96.5493
lradius 33.0429
lwrist 38.636
lhand -17.937 -14.6389
lfingers 7.12502
lthumb 8.33112 15.1768
rfemur -13.323 -3.81815 36.2733
rtibia 22.9854
rfoot -18.3539 9.0986
rtoes -7.58544
lfemur -20.4796 -4.0444 -0.230347
ltibia 33.7489
lfoot -18.9478 4.045
ltoes -28.1478
734
root -4.76431 15.7506 33.15 129.463 -77.6273 -122.525
lowerback -8.44224 1.3736 7.33601
upperback -3.60388 1.00141 3.06925
thorax 1.06063 0.372669 -0.842495
lowerneck 26.9665 -10.0751 -21.3005
upperneck -10.2867 -28.8801 55.5055
head 8.53191 -22.3291 32.7858
rclavicle 2.06736e-014 9.64106e-015
rhumerus -32.4056 10.3986 -92.3587
rradius 26.2365
rwrist 19.0841
rhand -6.93565 2.92841
rfingers 7.12502
rthumb 18.9327 -26.1702
lclavicle 2.06736e-014 9.64106e-015
lhumerus -41.9293 -14.4058 96.5405
lradius 33.0726
lwrist 38.6784
lhand -17.879 -14.6614
lfingers 7.12502
lthumb 8.38706 15.1521
rfemur -13.3232 -3.84693 36.3042
rtibia 22.9821
rfoot -18.3557 9.09874
rtoes -7.52648
lfemur -20.5222 -4.17475 -0.192021
ltibia 33.8071
lfoot -18.944 4.14654
ltoes -28.1371
735
root -4.7641 15.7497 33.1501 129.208 -77.623 -122.267
lowerback -8.45728 1.39079 7.35968
upperback -3.60184 1.02129 3.05466
thorax 1.07294 0.382825 -0.868559
lowerneck 27.026 -10.0865 -21.3038
upperneck -10.2846 -28.9072 55.5035
head 8.53862 -22.3511 32.7875
rclavicle 8.67198e-015 -3.16068e-014
rhumerus -32.416 10.4102 -92.3778
rradius 26.237
rwrist 18.9878
rhand -6.94225 2.89263
rfingers 7.12502
rthumb 18.9264 -26.2066
lclavicle 8.67198e-015 -3.16068e-014
lhumerus -41.9461 -14.4493 96.543
lradius 33.1049
lwrist 38.7168
lhand -17.8409 -14.6999
lfingers 7.12502
lthumb 8.42384 15.1121
rfemur -13.3218 -3.88256 36.3399
rtibia 22.9754
rfoot -18.3583 9.10509
rtoes -7.48042
lfemur -20.5656 -4.31603 -0.148028
ltibia 33.8692
lfoot -18.9389 4.25942
ltoes -28.1261
736
root -4.76398 15.7488 33.1503 128.943 -77.6135 -122.001
lowerback -8.47056 1.40813 7.38338
upperback -3.60094 1.04135 3.04441
thorax 1.08305 0.39294 -0.890141
lowerneck 27.086 -10.0986 -21.3033
upperneck -10.2846 -28.9334 55.5027
head 8.54294 -22.3724 32.7886
rclavicle 1.32813e-014 -6.95746e-015
rhumerus -32.443 10.5032 -92.4243
rradius 26.2578
rwrist 18.825
rhand -6.94752 2.84526
rfingers 7.12502
rthumb 18.9213 -26.2544
lclavicle 1.32813e-014 -6.95746e-015
lhumerus -41.963 -14.4806 96.547
lradius 33.1341
lwrist 38.7629
lhand -17.7933 -14.7661
lfingers 7.12502
lthumb 8.46977 15.0441
rfemur -13.3181 -3.92236 36.3807
rtibia 22.9643
rfoot -18.3603 9.11661
rtoes -7.44328
lfemur -20.6106 -4.46548 -0.0985488
ltibia 33.9364
lfoot -18.9352 4.38068
ltoes -28.1217
737
root -4.76388 15.7477 33.1507 128.689 -77.6018 -121.744
lowerback -8.48204 1.42753 7.40495
upperback -3.60183 1.06448 3.03587
thorax 1.09049 0.404449 -0.908515
lowerneck 27.1427 -10.1152 -21.2923
upperneck -10.288 -28.9595 55.5053
head 8.54388 -22.3921 32.7826
rclavicle -1.32937e-015 4.25399e-014
rhumerus -32.4799 10.6161 -92.478
rradius 26.2872
rwrist 18.659
rhand -6.95266 2.7984
rfingers 7.12502
rthumb 18.9164 -26.3018
lclavicle -1.32937e-015 4.25399e-014
lhumerus -41.9748 -14.4905 96.5434
lradius 33.1608
lwrist 38.8382
lhand -17.7051 -14.8421
lfingers 7.12502
lthumb 8.55492 14.9646
rfemur -13.314 -3.96935 36.4221
rtibia 22.9499
rfoot -18.3638 9.13326
rtoes -7.42344
lfemur -20.6574 -4.62006 -0.048939
ltibia 34.0078
lfoot -18.9326 4.50844
ltoes -28.1156
738
root -4.76379 15.7465 33.1512 128.435 -77.5875 -121.487
lowerback -8.49133 1.44329 7.41913
upperback -3.60402 1.08322 3.03659
thorax 1.09482 0.413651 -0.91366
lowerneck 27.1891 -10.1335 -21.2796
upperneck -10.2886 -28.9823 55.506
head 8.54251 -22.4056 32.7653
rclavicle -2.28602e-015 1.17283e-014
rhumerus -32.5199 10.7304 -92.5229
rradius 26.3149
rwrist 18.5274
rhand -6.96005 2.75475
rfingers 7.12502
rthumb 18.9092 -26.3461
lclavicle -2.28602e-015 1.17283e-014
lhumerus -41.9821 -14.4653 96.5353
lradius 33.1871
lwrist 38.9403
lhand -17.5882 -14.9304
lfingers 7.12502
lthumb 8.66778 14.8717
rfemur -13.3095 -4.01968 36.4665
rtibia 22.9341
rfoot -18.372 9.14665
rtoes -7.4504
lfemur -20.7055 -4.77714 0.00210314
ltibia 34.0818
lfoot -18.9297 4.64338
ltoes -28.1195
739
root -4.76367 15.7453 33.1518 128.194 -77.5736 -121.24
lowerback -8.49919 1.45508 7.42888
upperback -3.60714 1.09704 3.04115
thorax 1.09692 0.420329 -0.912878
lowerneck 27.2228 -10.1527 -21.264
upperneck -10.2822 -29.002 55.5044
head 8.54035 -22.4131 32.7359
rclavicle -7.11898e-015 -1.17283e-014
rhumerus -32.551 10.7916 -92.546
rradius 26.3268
rwrist 18.4822
rhand -6.9654 2.73639
rfingers 7.12502
rthumb 18.9041 -26.365
lclavicle -7.11898e-015 -1.17283e-014
lhumerus -41.9864 -14.4101 96.5172
lradius 33.2186
lwrist 39.0602
lhand -17.4513 -15.004
lfingers 7.12502
lthumb 8.7999 14.7925
rfemur -13.3069 -4.07497 36.5095
rtibia 22.9187
rfoot -18.3834 9.16029
rtoes -7.49775
lfemur -20.7542 -4.93397 0.0503606
ltibia 34.1556
lfoot -18.9268 4.7797
ltoes -28.1119
740
root -4.76353 15.744 33.1527 127.972 -77.5623 -121.015
lowerback -8.50614 1.47018 7.43983
upperback -3.60985 1.11558 3.03919
thorax 1.09942 0.429428 -0.919055
lowerneck 27.2534 -10.1762 -21.2421
upperneck -10.28 -29.0236 55.506
head 8.53746 -22.4209 32.7016
rclavicle -1.51325e-014 -1.92821e-014
rhumerus -32.5657 10.7617 -92.5462
rradius 26.3156
rwrist 18.536
rhand -6.97293 2.74069
rfingers 7.12502
rthumb 18.8969 -26.3614
lclavicle -1.51325e-014 -1.92821e-014
lhumerus -41.9905 -14.3608 96.4978
lradius 33.2538
lwrist 39.1719
lhand -17.3336 -15.0669
lfingers 7.12502
lthumb 8.91343 14.7248
rfemur -13.3053 -4.13014 36.5469
rtibia 22.9044
rfoot -18.3969 9.17191
rtoes -7.55495
lfemur -20.8017 -5.09013 0.0915438
ltibia 34.2271
lfoot -18.922 4.92035
ltoes -28.0989
741
root -4.76338 15.7429 33.1538 127.771 -77.5517 -120.81
lowerback -8.51044 1.48166 7.44307
upperback -3.61289 1.13004 3.04219
thorax 1.09962 0.436476 -0.916285
lowerneck 27.2844 -10.1934 -21.2433
upperneck -10.27 -29.0455 55.4991
head 8.54126 -22.4286 32.6718
rclavicle 6.4605e-016 2.38542e-014
rhumerus -32.5642 10.6706 -92.5168
rradius 26.2792
rwrist 18.6882
rhand -6.97186 2.77962
rfingers 7.12502
rthumb 18.8979 -26.3224
lclavicle 6.4605e-016 2.38542e-014
lhumerus -41.999 -14.2994 96.4886
lradius 33.2898
lwrist 39.2412
lhand -17.2658 -15.1241
lfingers 7.12502
lthumb 8.97885 14.6649
rfemur -13.3033 -4.17112 36.5794
rtibia 22.8908
rfoot -18.4056 9.17466
rtoes -7.59464
lfemur -20.846 -5.24284 0.128579
ltibia 34.2952
lfoot -18.9163 5.05935
ltoes -28.0744
